<svg width="1024" height="1024" viewBox="0 0 1024 1024" fill="none" xmlns="http://www.w3.org/2000/svg">
  <rect width="1024" height="1024" fill="#09090b" />
  <circle cx="512" cy="512" r="448" fill="#3b82f6" fill-opacity="0.1" />
  <circle cx="512" cy="512" r="384" fill="#6366f1" fill-opacity="0.2" />
  <rect x="288" y="288" width="448" height="448" rx="96" fill="#18181b" stroke="#27272a" stroke-width="4" />
  <g transform="translate(408, 408) scale(8.66667)" stroke="#6366f1" stroke-width="2.5" stroke-linecap="round" stroke-linejoin="round" fill="none">
    <path d="M17.596 12.768a2 2 0 1 0 2.829-2.829l-1.768-1.767a2 2 0 0 0 2.828-2.829l-2.828-2.828a2 2 0 0 0-2.829 2.828l-1.767-1.768a2 2 0 1 0-2.829 2.829z" />
    <path d="m2.5 21.5 1.4-1.4" />
    <path d="m20.1 3.9 1.4-1.4" />
    <path d="M5.343 21.485a2 2 0 1 0 2.829-2.828l1.767 1.768a2 2 0 1 0 2.829-2.829l-6.364-6.364a2 2 0 1 0-2.829 2.829l1.768 1.767a2 2 0 0 0-2.828 2.829z" />
    <path d="m9.6 14.4 4.8-4.8" />
  </g>
</svg>
